<svg xmlns="http://www.w3.org/2000/svg" width="56" height="56" fill="none"><path fill="#E64A19" d="M30.334 19.833H21A8.167 8.167 0 1 1 21 3.5h9.334v16.333Z"/><path fill="#7C4DFF" d="M29.167 36.167H21a8.167 8.167 0 1 1 0-16.334h8.167v16.334Z"/><path fill="#66BB6A" d="M21 52.5a8.167 8.167 0 1 1 0-16.333h8.167v8.166A8.167 8.167 0 0 1 21 52.5Z"/><path fill="#FF7043" d="M37.333 19.833h-8.166V3.5h8.166a8.167 8.167 0 0 1 0 16.333Z"/><path fill="#29B6F6" d="M37.333 36.167a8.167 8.167 0 1 0 0-16.334 8.167 8.167 0 0 0 0 16.334Z"/></svg>