<svg xmlns="http://www.w3.org/2000/svg" width="32" height="32" fill="none"><g clip-path="url(#a)"><path fill="#000" d="M24.096 6.03H7.746v19.81h16.35V6.03Z"/><path fill="#fff" d="M16.016-.08C7.173-.08 0 7.072 0 15.863c0 8.817 7.173 15.95 16.016 15.95 8.81 0 15.982-7.133 15.982-15.95 0-8.79-7.173-15.943-15.982-15.943Zm2.069 25.42V8.93h-1.47c-2.702 0-4.12 1.366-4.12 3.383 0 2.298.979 3.357 3.002 4.722l1.663 1.125-4.804 7.18H8.783l4.312-6.42c-2.482-1.772-3.873-3.497-3.873-6.414 0-3.662 2.535-6.146 7.366-6.146h4.797v18.98h-3.3Z"/></g><defs><clipPath id="a"><path fill="#fff" d="M0 0h32v32H0z"/></clipPath></defs></svg>