<svg xmlns="http://www.w3.org/2000/svg" width="529" height="574" fill="none"><path stroke="#000" stroke-miterlimit="10" stroke-width="4" d="M515 2H14C7.373 2 2 7.373 2 14v501.447c0 6.627 5.373 12 12 12h501c6.627 0 12-5.373 12-12V14c0-6.627-5.373-12-12-12Z"/><path fill="#000" d="M112.99 528.403h274.301c1.153-10.491-40.864-233.578-90.219-305.295-5.603-8.139-53.568-14.061-71.176 6.184C132.622 336.5 110.736 525.833 112.99 528.403Z"/><path fill="#FF9581" d="M303.578 241.622c7.786 20.187 37.157 90.962 53.12 141.756 10.712 34.087 14.791 62.695 17.134 70.212 0 0-80.992-26.038-99.228-26.083-28.084-.07-73.136 58.638-62.084 65.989 17.371 11.567 100.182 50.903 166.313 63.252 35.947 6.716 103.679-39.015 98.326-75.371-7.511-51.024-99.639-185.52-134.689-223.657-18.197-19.796-48.381-40.7-38.892-16.098Z"/><path fill="#000" d="M482.095 492.163c-1.696 36.753-47.632 67.693-74.275 69.327-45.948 2.788-183.787-37.387-183.787-37.387l53.581-103.312s93.792 31.863 96.174 32.76v-.038c-.826-2.736-23.941-89.668-34.27-118.474-.55-1.59-1.191-3.217-1.792-4.928-2.971-7.979-7.05-18.515-11.558-29.896l-.045-.083c-2.497-6.3-5.135-12.888-7.728-19.386v-.039c-11.327-28.165-22.366-54.972-22.366-54.972 15.79 2.596 31.381 10.901 56.981 37.791 25.548 26.858 131.89 168.006 129.085 228.637Z"/><path fill="#2B454E" d="M259.756 501.75c3.822-7.312 7.709-14.593 11.544-21.898a2283.66 2283.66 0 0 1 11.417-21.392c3.97-7.357 8.138-14.701 11.346-22.43.058-.147-.141-.269-.237-.141-4.821 6.364-8.791 13.381-12.755 20.296-4.104 7.165-8.106 14.394-12.069 21.642-3.887 7.1-7.626 14.271-11.315 21.468-3.79 7.408-7.619 15.086-10.36 22.956-.109.314.327.621.532.314 4.431-6.582 8.221-13.792 11.897-20.815Z"/><path fill="#1C1C1C" d="m402.474 468.797-28.641-15.201-.045-.038v-.039c-.826-2.736-23.941-89.668-34.269-118.474-.551-1.589-1.191-3.217-1.793-4.928-2.971-7.979-7.05-18.514-11.558-29.896l76.306 168.576Z"/><path fill="#1C1C1C" d="M426.184 481.409c-7.952-5.947-16.526-11.266-25.164-16.156a155.569 155.569 0 0 0-13.248-6.722c-4.815-2.153-9.905-3.711-14.688-5.877-.365-.166-.634.398-.269.564 4.469 2.025 8.714 4.845 13.03 7.197a637.367 637.367 0 0 0 13.542 7.197c8.926 4.595 17.692 9.471 26.567 14.163.211.115.429-.218.23-.366Z"/><path fill="#fff" d="M405.33 459.153c-7.191.096-50.591-11.504-56.911-5.544-38.521 36.343-50.699 29.024-58.902 33.76-63.473 36.548-148.237 79.485-178.491 79.754-45.885.372-64.16-38.169-56.52-74.582C69.585 420.56 166.579 280.208 210.465 242.91c23.269-19.745 21.431 10.036 11.807 42.412-5.647 18.982-15.521 47.205-25.593 74.902-8.919 24.673-32.559 87.72-32.969 89.2v.039c-.038.083-.077.128-.07.173-.032.166.134.199.505.096 2.017-.372 56.296-25.974 110.882-40.04 19.235-4.954 59.293-12.016 73.655-5.601 8.541 3.813 8.682 8.914 8.682 8.914s6.845-.622 14.068 5.325c4.789 3.948 6.275 9.53 6.275 9.53s7.491 1.051 11.391 5.396c4.649 5.184 5.058 10.67 5.058 10.67 10.117 2.704 11.174 15.227 11.174 15.227Z"/><path fill="#1A2E35" d="M341.217 411.486c-5.789.083-11.436.923-17.122 1.922-.384.071-.372.667.038.622 5.584-.615 11.238-.743 16.847-.929 5.577-.186 11.243-.308 16.821-.192.032 0 .038-.058.006-.064-5.564-.917-10.93-1.442-16.59-1.359ZM377.547 427.527c-9.937-2.73-17.858-4.243-30.337-2.679-.404.051-.372.647.025.621 11.859-.736 19.594.468 30.293 2.269.122.026.128-.179.019-.211ZM394.048 443.593c-9.963-4.102-17.634-5.384-28.692-5.384-.391 0-.519.577-.115.616 10.61 1.012 18.37 2.537 28.66 5.216.256.064.39-.346.147-.448ZM272.377 410.326c-4.764.622-9.528 2.025-14.19 3.172-4.968 1.224-9.924 2.577-14.791 4.185-9.745 3.217-19.202 7.075-28.532 11.33-.358.167-.166.718.218.584 9.502-3.333 19.1-6.454 28.705-9.479 4.725-1.486 9.419-3.069 14.125-4.607 4.828-1.583 9.854-2.782 14.599-4.582.32-.122.224-.654-.134-.603Z"/><path fill="#000" d="M234.412 420.624c10.046-3.402 14.586-3.422 14.586-3.422l57.109 96.519s-157.298 56.677-189.588 59.99c-32.297 3.313-69.038-22.141-69.66-62.72-.87-57.036 92.057-194.005 138.806-246.971 21.425-24.276 46.403-41.906 52.774-37.926 7.524 4.697-6.14 35.221-13.344 57.991-13.292 42.033-60.938 165.647-60.938 165.647s58.287-25.051 70.255-29.108Z"/><path fill="#1C1C1C" d="M248.486 417.125c-8.862.52-47.172 13.875-65.958 21.943-18.723 8.043-36.735 17.585-53.632 29.005-9.56 6.46-18.633 13.49-27.598 20.751-.307.25.026.75.359.513 16.52-11.824 34.167-22.373 52.025-32.03 17.768-9.607 35.863-18.726 54.695-26.076 10.725-4.185 29.166-10.453 39.641-13.202 2.965-.782.743-.923.468-.904Z"/><path fill="#1C1C1C" d="M210.771 332.725c-2.394 3.871-4.821 7.716-6.87 11.792-.096.192-.186.384-.282.577a981.55 981.55 0 0 0 8.695-27.897c.173-.576-.781-.884-.998-.326-13.517 34.26-26.061 68.936-38.227 103.702-3.406 9.722-6.39 19.546-9.483 29.364-.109.34.449.513.589.192 3.714-8.42 7.454-16.784 10.854-25.352 3.4-8.562 6.556-17.219 9.751-25.858 5.584-15.105 10.905-30.287 16.034-45.545 1.607-2.673 3.227-5.339 4.744-8.056 2.209-3.967 4.028-8.12 5.872-12.266.199-.455-.429-.73-.679-.327ZM267.836 492.701c-4.188-7.113-8.311-14.259-12.48-21.379a2296.974 2296.974 0 0 1-12.121-21c-4.142-7.261-8.17-14.682-13.03-21.494-.09-.129-.307-.02-.243.128 2.849 7.459 6.704 14.541 10.482 21.558 3.912 7.274 7.933 14.49 11.986 21.686 3.97 7.05 8.074 14.016 12.236 20.956 4.278 7.133 8.773 14.445 14.004 20.93.211.257.698.058.551-.288-3.247-7.242-7.364-14.265-11.385-21.097Z"/><path fill="#1C1C1C" d="M308.38 513.926c-4.739-9.35-12.109-18.533-17.564-27.428-.205-.34-.711.013-.512.352 4.956 8.344 9.496 17.335 14.234 25.82-21.604 8.927-44.54 16.887-66.573 24.699-22.609 8.023-45.366 15.624-68.436 22.276-12.896 3.717-25.811 7.748-38.783 11.157-.807.211-.589.878.237.718 23.339-4.397 46.255-11.145 68.852-18.322 23.045-7.319 45.788-15.496 68.423-23.962 12.736-4.761 40.506-14.553 40.122-15.31Z"/><path fill="#fff" d="M270.922 410.39c-29.704 7.613-63.883 20.142-79.199 26.14-.404.141-.769.282-1.134.417-13.491 5.306-21.847 9.241-23.851 9.574-.166-.077-.295-.192-.423-.269v-.038c-1.402-1.013-2.791-1.782-4.174-2.301-3.804-1.365-40.353-5.934-39.43-17.265.89-11.208 15.783-10.51 17.973-10.356-2.369-.519-22.206-5.171-15.745-15.085 4.565-7.031 24.21-5.999 26.188-5.922-2.004-.66-20.227-6.607-13.958-16.726 4.488-7.242 26.419-6.3 28.948-5.87-2.049-.782-18.294-3.506-10.712-12.228 5.263-6.075 46.556.103 64.914 9.273 27.296 13.638 50.603 40.656 50.603 40.656Z"/><path fill="#1A2E35" d="M191.722 436.531c-.403.141-.768.282-1.133.416-6.339-4.928-30.325-17.642-49.169-20.058-1.166-.148-1.243-.821-.007-.763 23.269 1.057 44.188 14.772 50.309 20.405ZM152.023 396.035c26.009 5.165 37.765 10.914 60.131 25.134.314.199.666-.263.365-.493-20.849-15.618-33.821-23.353-60.272-25.301-1.198-.09-1.415.423-.224.66ZM166.916 373.227c24.953 6.639 38.105 12.394 58.204 28.672.474.384 1.057-.199.621-.628-18.94-18.386-35.306-25.673-58.588-28.736-1.588-.205-1.806.276-.237.692Z"/><path fill="#fff" stroke="#000" stroke-miterlimit="10" stroke-width=".641" d="M291.86 273.075c-14.778 5.319-43.483-14.951-55.911-32.6-.846-1.218-.41-15.041-.679-31.87-.199-10.209-.666-21.577-1.838-31.914l66.579 8.395s-3.912 22.398-1.761 40.412c.199 1.506.506 2.89.929 4.191.045.192.128.423.173.692 2.234 7.908 6.793 37.541-7.492 42.694Z"/><path fill="#000" stroke="#000" stroke-miterlimit="10" stroke-width=".641" d="M299.377 230.375c.128.429.256.897.34 1.455-39.859-1.692-55.022-19.232-64.831-36.061-.301-6.415-.724-12.92-1.454-19.078l66.586 8.382s-3.932 22.417-1.755 40.425c.173 1.5.512 2.865.941 4.191.045.167.084.429.173.686Z"/><path fill="#fff" stroke="#000" stroke-miterlimit="10" stroke-width="1.282" d="M206.142 106.793c-3.611 23.923 18.204 88.284 36.645 100.633 26.733 17.899 65.651 14.252 79.622-16.803 13.543-30.101-16.373-113.47-36.517-124.19-29.671-15.798-74.416 5.017-79.75 40.36Z"/><path fill="#000" d="M267.708 135.74c-.089-.153-.269.321-.205.494 1.582 4.294 2.677 9.484-.768 12.234-.109.083-.019.301.115.23 4.566-2.268 3.048-9.144.858-12.958Z"/><path fill="#000" d="M262.317 132.504c-7.152 1.801-3.029 15.989 3.598 14.323 6.525-1.647 2.401-15.835-3.598-14.323ZM294.421 127.691c-.013-.179.404.109.448.289 1.14 4.434 3.189 9.324 7.588 9.625.135.007.192.238.038.257-5.052.73-7.709-5.787-8.074-10.171Z"/><path fill="#000" d="M297.008 121.956c6.909-2.596 11.583 11.426 5.18 13.823-6.294 2.371-10.968-11.651-5.18-13.823ZM254.838 127.64c1.786-1.051 3.265-2.313 4.93-3.537 1.876-1.378 3.509-2.282 4.335-4.563.442-1.224-.391-2.948-1.537-3.493-2.676-1.262-5.391-.147-7.715 1.416-2.523 1.699-4.034 3.653-4.918 6.563-.858 2.819 2.542 4.998 4.905 3.614ZM300.415 113.214c-2.062.25-4.002.141-6.058.18-2.324.045-4.175.32-6.217-1-1.095-.705-1.473-2.582-.89-3.71 1.357-2.628 4.194-3.39 6.992-3.557 3.035-.18 5.423.455 7.882 2.236 2.389 1.724 1.005 5.518-1.709 5.851ZM277.869 176.486c1.352.724 2.811 1.833 4.444 1.506 1.563-.314 3.157-1.525 4.399-2.48.122-.096.307.012.256.173-.646 2.018-2.74 3.774-4.879 4.011-2.087.231-3.573-1.204-4.584-2.883-.141-.238.166-.43.364-.327Z"/><path fill="#000" d="M278.657 161.983c3.566 3.102 7.786 4.134 11.916 3.749 1.844-.16 3.701-.634 5.449-1.32.352-.109.692-.25.993-.416.307-.135.589-.257.922-.43.493-.224.653-.73.595-1.243l-.013-.032c-.051-.16-.089-.288-.173-.436l-.006-.032-.122-.384c-.89-3.41-2.715-8.46-2.715-8.46 1.416.257 8.542 1.263 7.927-.48-5.128-14.381-10.827-30.377-18.965-43.604-.244-.448-.948-.121-.769.346 4.38 14.016 11.199 27.166 15.822 41.181-2.234-.179-5.923-.64-7.684-.089-.441.275 3.701 9.696 3.977 11.259 0 0 .019.065.019.174-5.468 2.383-10.251 1.909-16.878-.302-.397-.153-.66.244-.295.519Z"/><path fill="#000" d="M213.16 152.133c3.772-3.089 8.536-18.918 10.751-25.454 2.299-6.793-4.521-34.33-6.749-42.52-5.628 6.356-9.592 14.13-10.987 22.884-1.601 9.965 1.498 27.627 6.985 45.09Z" opacity=".2"/><path fill="#1A2E35" d="M276.109 92.073c-3.195 6.895-9.669 11.83-17.263 12.74-7.395.884-15.815-1.98-20.323-8.113-.135-.18-.416.025-.282.211 4.822 6.55 12.486 10.882 20.797 9.683 7.799-1.128 14.868-6.902 17.57-14.297.115-.333-.352-.545-.499-.224ZM239.195 46.092c-12.185 3.8-21.488 13.83-23.569 23.48-1.268 5.864-.192 11.138 2.138 16.15.096.205.519.032.442-.18-3.093-8.106-1.709-18.75 5.52-27.114 6.947-8.03 17.794-13.022 28.685-12.118 5.686.467 10.777 2.531 14.049 5.889.365.378 1.203-.18.877-.577-5.539-6.703-17.116-8.965-28.142-5.53ZM318.049 52.212c-3.669-5.486-9.374-9.453-15.7-11.234-8.862-2.5-17.173.64-25.363 3.922-.224.09-.083.436.135.346 6.985-2.775 14.227-5.178 21.808-3.698 6.179 1.211 12.013 4.512 16.015 9.408 8.311 10.164 7.734 25.897-1.486 35.292-5.218 5.319-12.71 8.33-20.15 8.087-.295-.006-.378.442-.077.462 13.709.807 26.726-9.088 28.91-22.802 1.082-6.767-.257-14.06-4.092-19.783Z"/><path fill="#000" d="M205.995 120.488s-17.871-18.674-11.717-34.157c3.483-8.773 22.077-13.01 22.077-13.01s2.927-12.214 17.129-19.988c14.349-7.85 35.114-4.044 35.114-4.044s12.211-12.464 28.058-8.516c22.097 5.505 27.905 35.182 11.385 49.922-11.603 10.35-33.219 3.595-33.219 3.595-1.691.737-16.61 16.669-34.73 4.448 0 0-8.28 12.951-20.138 8.863.006.006-2.203 11.4-13.959 12.887Z"/><path fill="#EDEFEF" d="m299.16 228.972-14.164 39.213-49.559-46.808-12.928 16.118s49.611 75.479 49.771 71.974l14.567-33.728 23.717 22.173-4.053-57.785-7.351-11.157Z"/><path fill="#1C1C1C" d="M310.18 269.236c-.993-9.516-1.723-19.136-3.151-28.595-.051-.333-.582-.467-.653-.064-1.562 9.286 2.414 45.667 2.709 54.415-.032-.032-.071-.064-.103-.096-.992-.961-21.943-19.469-22.135-19.161-3.234 5.389-13.927 29.953-14.637 32.177-7.844-11.991-37.836-55.524-47.012-66.796-.262-.327-.768-.032-.557.352 7.012 12.708 46.73 71.359 47.3 71.167.403.288 13.709-29.973 15.22-35.651 3.579 4.07 24.818 25.051 24.831 23.628.102-9.58-.826-21.846-1.812-31.376Z"/><path fill="#fff" stroke="#000" stroke-miterlimit="10" stroke-width="1.282" d="M228.201 158.612s-18.473-18.815-27.245-11.875c-8.772 6.941 7.613 35.965 19.67 38.285 12.057 2.32 14.42-8.805 14.42-8.805l-6.845-17.605Z"/><path fill="#1A2E35" d="M205.861 154.934c-.186.012-.179.275-.007.314 8.497 1.89 13.927 8.568 18.147 15.733-2.862-2.551-6.352-3.621-9.829-.141-.179.185.07.474.288.39 3.144-1.243 5.59-1.076 8.228 1.167 1.87 1.589 3.33 3.749 4.802 5.697.493.647 1.716.051 1.307-.724l-.096-.173c-1.512-10.183-11.776-23.071-22.84-22.263Z"/></svg>