<svg xmlns="http://www.w3.org/2000/svg" width="23" height="18" fill="none"><path fill="#fff" fill-rule="evenodd" d="M.333 6.6c0-2.05 0-3.076.336-3.883A4.4 4.4 0 0 1 3.049.336C3.857 0 4.883 0 6.933 0h8.8c2.05 0 3.076 0 3.883.336a4.4 4.4 0 0 1 2.381 2.38c.336.808.336 1.834.336 3.884V11c0 2.05 0 3.076-.335 3.883a4.4 4.4 0 0 1-2.38 2.382c-.81.335-1.835.335-3.885.335h-8.8c-2.05 0-3.076 0-3.883-.335a4.4 4.4 0 0 1-2.381-2.38C.333 14.074.333 13.05.333 11V6.6Zm2.2-.762V11c0 1.056.001 1.736.036 2.257.036.503.094.693.132.784a2.2 2.2 0 0 0 1.19 1.192c.092.037.283.097.785.13.52.036 1.202.037 2.257.037h8.8c1.056 0 1.736-.001 2.257-.036.503-.034.693-.094.785-.132a2.2 2.2 0 0 0 1.19-1.19c.038-.092.098-.282.132-.785.035-.521.036-1.202.036-2.257V5.852l-8.801 5.064-8.799-5.078Zm17.38-2.397a2.2 2.2 0 0 0-1.139-1.074c-.09-.037-.281-.095-.784-.13C17.47 2.2 16.79 2.2 15.733 2.2h-8.8c-1.056 0-1.737.001-2.258.036-.5.035-.693.094-.783.132a2.2 2.2 0 0 0-1.133 1.06l8.574 4.95 8.58-4.937Z" clip-rule="evenodd"/></svg>