<svg xmlns="http://www.w3.org/2000/svg" width="76" height="58" fill="none"><g clip-path="url(#a)"><g clip-path="url(#b)"><path fill="#CF649A" d="M61.661 36.181a13.518 13.518 0 0 0-5.947 1.385c-.615-1.218-1.23-2.282-1.333-3.077-.115-.922-.257-1.486-.115-2.589.14-1.102.781-2.666.781-2.794-.012-.115-.14-.68-1.46-.692-1.321-.013-2.462.256-2.59.602-.128.347-.385 1.141-.551 1.962-.23 1.204-2.64 5.472-4.012 7.716-.448-.872-.833-1.641-.91-2.256-.115-.923-.256-1.487-.115-2.59.14-1.102.782-2.665.782-2.794-.013-.115-.142-.679-1.462-.692-1.32-.012-2.46.257-2.589.603-.128.346-.269 1.166-.55 1.96-.27.795-3.474 7.922-4.308 9.78a39.6 39.6 0 0 1-1.063 2.218c-.27.512-.013.038-.039.09l-.359.679v.013c-.18.32-.371.628-.461.628-.064 0-.192-.86.026-2.038.474-2.474 1.627-6.332 1.614-6.473 0-.064.218-.743-.743-1.09-.936-.346-1.269.231-1.346.231-.077 0-.14.205-.14.205s1.037-4.345-1.988-4.345c-1.896 0-4.511 2.064-5.806 3.948-.82.449-2.563 1.397-4.409 2.41-.705.384-1.436.794-2.128 1.166l-.14-.154c-3.666-3.91-10.447-6.678-10.165-11.933.103-1.91.77-6.947 13.023-13.048 10.036-4.999 18.072-3.627 19.47-.577 1.986 4.358-4.294 12.459-14.728 13.625-3.973.449-6.063-1.09-6.588-1.666-.551-.602-.628-.628-.833-.513-.333.18-.128.718 0 1.038.308.808 1.59 2.244 3.768 2.961 1.91.628 6.576.974 12.215-1.204 6.32-2.449 11.254-9.242 9.805-14.92-1.474-5.78-11.061-7.678-20.123-4.46-5.396 1.922-11.24 4.921-15.445 8.856-4.999 4.666-5.793 8.742-5.46 10.434 1.166 6.037 9.485 9.972 12.817 12.881-.166.09-.32.18-.461.256-1.666.82-8.011 4.14-9.6 7.652-1.795 3.974.282 6.832 1.666 7.217 4.281 1.192 8.665-.949 11.036-4.474 2.358-3.524 2.076-8.1.987-10.19l-.039-.076 1.308-.77c.846-.5 1.679-.96 2.41-1.358-.41 1.115-.706 2.435-.86 4.358-.179 2.256.744 5.178 1.962 6.332.538.5 1.179.512 1.576.512 1.41 0 2.05-1.166 2.756-2.563.871-1.705 1.64-3.679 1.64-3.679s-.96 5.345 1.667 5.345c.961 0 1.922-1.243 2.358-1.884v.013s.026-.039.077-.128c.103-.154.154-.244.154-.244v-.025c.384-.667 1.243-2.192 2.525-4.717 1.653-3.256 3.243-7.332 3.243-7.332s.154 1 .628 2.64c.282.975.897 2.038 1.371 3.077-.384.538-.615.846-.615.846l.013.012c-.308.41-.654.846-1.013 1.282-1.307 1.564-2.87 3.346-3.076 3.858-.243.603-.192 1.051.282 1.41.346.257.961.308 1.615.257 1.18-.077 2-.372 2.41-.552a8.347 8.347 0 0 0 2.076-1.09c1.282-.948 2.064-2.293 1.987-4.088-.039-.987-.36-1.96-.756-2.884.115-.166.23-.333.346-.512 2.025-2.961 3.589-6.217 3.589-6.217s.153 1 .628 2.64c.243.834.73 1.744 1.166 2.64-1.897 1.552-3.09 3.346-3.5 4.525-.755 2.18-.166 3.166.95 3.397.5.103 1.217-.128 1.755-.359a7.952 7.952 0 0 0 2.218-1.14c1.281-.95 2.512-2.27 2.448-4.05-.039-.821-.257-1.629-.551-2.398 1.615-.666 3.704-1.05 6.357-.73 5.704.666 6.832 4.23 6.614 5.716-.218 1.487-1.41 2.307-1.807 2.564-.398.243-.526.333-.487.512.05.27.23.257.576.206.475-.077 3-1.218 3.102-3.961.154-3.525-3.191-7.37-9.126-7.332Zm-43.99 14.83c-1.883 2.064-4.537 2.845-5.664 2.179-1.218-.705-.744-3.743 1.576-5.934 1.41-1.333 3.243-2.564 4.448-3.32.269-.167.679-.41 1.166-.705.077-.051.128-.077.128-.077.09-.051.192-.115.295-.18.859 3.128.038 5.87-1.948 8.037Zm13.78-9.37c-.654 1.603-2.038 5.717-2.872 5.486-.717-.192-1.153-3.306-.14-6.383.512-1.55 1.602-3.396 2.242-4.114 1.039-1.154 2.167-1.538 2.449-1.064.333.615-1.27 5.076-1.68 6.076Zm11.369 5.435c-.282.141-.539.244-.654.167-.09-.052.115-.244.115-.244s1.423-1.525 1.987-2.23c.32-.41.705-.884 1.115-1.423v.154c0 1.846-1.769 3.076-2.563 3.576Zm8.767-2c-.205-.153-.18-.627.512-2.114.27-.59.885-1.577 1.949-2.513.128.385.205.757.192 1.103-.013 2.307-1.654 3.166-2.653 3.525Z"/></g></g><defs><clipPath id="a"><path fill="#fff" d="M.5.875h75v56.25H.5z"/></clipPath><clipPath id="b"><path fill="#fff" d="M5.188 7.906h65.624v49.22H5.189z"/></clipPath></defs></svg>