<svg xmlns="http://www.w3.org/2000/svg" width="56" height="56" fill="none"><g fill="#000" clip-path="url(#a)"><path d="M26.168.044c-.12.01-.503.049-.847.076C17.375.837 9.933 5.124 5.22 11.713 2.595 15.377.916 19.533.282 23.934.058 25.471.03 25.924.03 28.008c0 2.084.028 2.537.252 4.074 1.52 10.505 8.995 19.33 19.133 22.6 1.816.585 3.73.984 5.906 1.225.847.093 4.511.093 5.359 0 3.756-.416 6.939-1.345 10.078-2.947.48-.246.574-.312.508-.367-.044-.033-2.094-2.783-4.555-6.108l-4.473-6.042-5.605-8.295c-3.084-4.56-5.621-8.29-5.643-8.29-.022-.006-.044 3.68-.055 8.18-.016 7.88-.022 8.197-.12 8.383-.142.268-.252.377-.481.498-.175.087-.328.104-1.154.104h-.946l-.252-.159a1.022 1.022 0 0 1-.366-.4l-.115-.245.011-10.964.017-10.97.17-.213c.087-.114.272-.262.404-.333.224-.11.311-.12 1.257-.12 1.116 0 1.302.043 1.592.36.082.088 3.117 4.66 6.747 10.166C31.33 33.65 36.296 41.17 38.734 44.86l4.43 6.71.224-.148c1.985-1.29 4.084-3.128 5.747-5.042a27.846 27.846 0 0 0 6.584-14.299c.224-1.537.251-1.99.251-4.074 0-2.083-.027-2.537-.251-4.074-1.52-10.504-8.996-19.33-19.134-22.6-1.788-.58-3.69-.979-5.823-1.22-.525-.054-4.14-.114-4.594-.07Zm11.45 16.918c.263.132.476.383.553.646.044.142.055 3.182.044 10.034l-.017 9.832-1.733-2.658-1.739-2.657v-7.147c0-4.621.022-7.218.055-7.344.087-.306.279-.547.541-.69.224-.114.306-.125 1.165-.125.81 0 .951.011 1.132.11Z"/><path d="M42.89 51.691c-.191.12-.251.202-.082.11.12-.072.317-.22.284-.225-.016 0-.109.055-.202.115Zm-.377.246c-.099.077-.099.082.022.022.065-.033.12-.071.12-.082 0-.044-.027-.033-.142.06Zm-.274.164c-.098.077-.098.082.022.022.066-.033.12-.071.12-.082 0-.044-.027-.033-.142.06Zm-.273.164c-.099.077-.099.082.022.022.066-.033.12-.071.12-.082 0-.044-.027-.033-.142.06Zm-.416.219c-.207.11-.197.153.011.05a.57.57 0 0 0 .164-.11c0-.038-.005-.033-.175.06Z"/></g><defs><clipPath id="a"><path fill="#fff" d="M0 0h56v56H0z"/></clipPath></defs></svg>