<svg width="32" height="32" viewBox="0 0 32 32" fill="none" xmlns="http://www.w3.org/2000/svg">
<rect width="32" height="32" fill="#004593"/>
<path d="M4.3125 25V4.63636H13.142C14.6932 4.63636 15.9957 4.84517 17.0497 5.26278C18.1103 5.6804 18.9091 6.27036 19.446 7.03267C19.9896 7.79498 20.2614 8.69318 20.2614 9.72727C20.2614 10.4763 20.0956 11.1591 19.7642 11.7756C19.4394 12.392 18.982 12.9091 18.392 13.3267C17.8021 13.7377 17.1127 14.0227 16.3239 14.1818V14.3807C17.1989 14.4138 17.9943 14.6359 18.7102 15.0469C19.4261 15.4512 19.9962 16.0114 20.4205 16.7273C20.8447 17.4366 21.0568 18.2718 21.0568 19.233C21.0568 20.3466 20.7652 21.3376 20.1818 22.206C19.6051 23.0743 18.7831 23.7571 17.7159 24.2543C16.6487 24.7514 15.3759 25 13.8977 25H4.3125ZM9.84091 20.5852H12.4261C13.3542 20.5852 14.0502 20.4129 14.5142 20.0682C14.9782 19.7169 15.2102 19.1998 15.2102 18.517C15.2102 18.0398 15.1009 17.6354 14.8821 17.304C14.6634 16.9725 14.3518 16.7206 13.9474 16.5483C13.5497 16.3759 13.0691 16.2898 12.5057 16.2898H9.84091V20.5852ZM9.84091 12.8693H12.108C12.5919 12.8693 13.0194 12.7931 13.3906 12.6406C13.7618 12.4882 14.0502 12.2694 14.2557 11.9844C14.4678 11.6927 14.5739 11.3381 14.5739 10.9205C14.5739 10.2907 14.3485 9.81013 13.8977 9.47869C13.447 9.14062 12.8769 8.97159 12.1875 8.97159H9.84091V12.8693Z" fill="#FBCE35"/>
<path d="M22.567 28C21.883 28 21.237 27.8797 20.629 27.639C20.0337 27.3857 19.508 27.0437 19.052 26.613C18.6087 26.1697 18.2603 25.6567 18.007 25.074C17.7537 24.4913 17.627 23.8643 17.627 23.193C17.6397 22.585 17.7283 21.9897 17.893 21.407C18.0703 20.8117 18.3173 20.2037 18.634 19.583C18.9507 18.9623 19.3243 18.2973 19.755 17.588L21.598 14.491H24.581L24.676 14.681L22.111 18.728C21.7817 19.26 21.4967 19.7667 21.256 20.248C21.0153 20.7167 20.7937 21.179 20.591 21.635C20.401 22.091 20.211 22.5723 20.021 23.079L19.413 21.692C19.5903 21.0967 19.888 20.5773 20.306 20.134C20.7367 19.678 21.2243 19.3233 21.769 19.07C22.3137 18.8167 22.8393 18.69 23.346 18.69C24.0933 18.69 24.7773 18.8927 25.398 19.298C26.0313 19.6907 26.5317 20.2163 26.899 20.875C27.279 21.5337 27.469 22.2557 27.469 23.041C27.469 23.9783 27.2537 24.827 26.823 25.587C26.405 26.3343 25.8287 26.9233 25.094 27.354C24.3593 27.7847 23.517 28 22.567 28ZM22.605 25.321C22.9977 25.321 23.346 25.2323 23.65 25.055C23.9667 24.8777 24.2137 24.6307 24.391 24.314C24.5683 23.9847 24.657 23.6173 24.657 23.212C24.657 22.8573 24.562 22.5217 24.372 22.205C24.1947 21.8883 23.954 21.635 23.65 21.445C23.346 21.255 23.004 21.16 22.624 21.16C22.2187 21.16 21.8577 21.255 21.541 21.445C21.2243 21.6223 20.9773 21.8693 20.8 22.186C20.6227 22.49 20.534 22.832 20.534 23.212C20.534 23.6047 20.6227 23.9657 20.8 24.295C20.9773 24.6117 21.218 24.865 21.522 25.055C21.8387 25.2323 22.1997 25.321 22.605 25.321Z" fill="white"/>
</svg>
