<svg xmlns="http://www.w3.org/2000/svg" width="796" height="473" fill="none"><g clip-path="url(#a)"><path fill="#000" d="M796 456.116H0v3h796v-3Z"/><path fill="#fff" stroke="#000" stroke-width="1.941" d="M512.91 190.887c-5.074-6.461-18.268-26.302-30.447-53.989 2.768-3.23 8.027-13.013 6.92-26.303-14.394-2.215-23.116-33.223-25.677-48.45 19.112-10.606 2.826-38.896 9.069-40.145 6.92-1.385 24.911 5.536 24.911 23.532 0 17.997 30.826 9.502 38.752 5.538 19.375-9.69 12.456 13.844 4.152 35.993-4.429 7.752 11.071 22.61 19.375 29.07 2.213 22.15-17.531 56.296-27.679 70.601 1.384 41.529 1.661 124.589-8.304 124.589-6.643-13.29-10.149-85.828-11.072-120.436Z"/><path stroke="#241715" stroke-width=".97" d="M500.45 64.906c-2.307 2.307-5.536 8.86 0 16.611M511.522 85.68c-.922 5.076-4.982 12.736-13.839 2.769M541.97 69.062c1.846-5.075 4.152-14.95-1.384-13.843"/><path fill="#000" d="M487.904 125.82c1.22-4.227 1.962-9.389 1.476-15.227 7.669 4.153 20.757 5.538 48.437-13.844 1.105 14.397-32.815 25.379-49.913 29.071ZM558.579 21.998c9.688 23.534-12.456 55.373-17.992 65.064 8.304-22.149 13.839-45.684-4.152-35.993-7.802 4.202-38.751 12.458-38.751-5.538 0-17.996-17.992-24.918-24.912-23.533-6.243 1.25 10.044 29.54-9.069 40.145-2.072 1.15-4.56 2.092-7.538 2.769 6.92-9.69 4.152-8.306-1.384-31.84-5.536-23.533 19.375-29.07 42.903-31.838 23.527-2.769 51.207-2.769 60.895 20.764Z"/><path fill="#000" d="M647.26 150.294c-13.561-17.803-71.335-35.677-98.528-42.388 1.695 16.955-13.419 43.095-21.188 54.045 1.06 31.791 1.272 95.373-6.356 95.373-5.086-10.173-7.77-65.701-8.476-92.194-3.884-4.945-13.984-20.134-23.307-41.328-2.119 6.358-59.329 49.806-68.864 63.582-9.534 13.776-12.713 146.239-12.713 157.896 0 11.656-4.238 91.134 30.724 91.134 27.969 0 142.317 3.886 200.232 5.299 8.476-89.722 22.036-273.616 8.476-291.419Z"/><path stroke="#fff" stroke-width=".97" d="M407.831 345.273c57.916-12.01 173.747-25.221 173.747 18.015 0 43.236-53.678 67.67-80.517 74.483m80.517-320.434c-7.062 3.212-22.036 18.327-25.426 53.085-4.238 43.448-17.841 58.283-28.861 58.283m-10.814 2.12c-9.023 4.945-28.764 8.689-35.545-15.896-8.475-30.731-26.158-47.686-45.921-42.388m178.35-43.447c-2.118-.897-36.02 22.253-39.199 75.238-3.178 52.985-37.08 152.598-107.002 99.612-26.488-26.493-52.009-43.094-56.295-41.328m78.543 174.834c9.535-9.178 26.062-30.502 15.891-42.371-10.17-11.869-65.802 4.239-92.346 13.776M652.348 177.84c-22.884 14.129-65.049 59.131-50.64 126.104 12.713 38.15 35.945 34.264 45.972 27.553m-3.833 51.925c-13.693.181-39.809 11.932-34.723 57.495"/><path stroke="#027269" stroke-width=".97" d="M521.188 436.404v-178.03"/><path fill="#fff" d="m521.824 434.671-5.207-38.723c-11.84 2.148-36.498 4.23-55.546 6.035-19.941 1.891-24.966 12.364-11.581 15.708-7.001-.874-14.84 8.781-3.668 13.105-8.195 2.911 8.014 6.16 15.96 6.176-4.548.687-12.433 1.955-11.361 6.775 1.072 4.819 48.048-4.043 71.403-9.076Z"/><path fill="#000" d="m521.824 434.672-5.207-38.723c-2.754.5-6.202.996-10.112 1.486l-11.845 42.629a889.718 889.718 0 0 0 27.164-5.392Z"/><path stroke="#000" stroke-width=".97" d="m462.106 437.257 16.474-4.638M449.596 426.91l28.88-3.507M449.491 417.69l29.497-5.103"/><path fill="#000" d="M678.692 400.666c2.563-40.583 5.362-245.105-40.406-256.13-52.904-12.743-52.21 182.302-29.243 226.799l-108.027 10.984 10.136 67.418c52.521-3.669 163.297 18.085 167.54-49.071Z"/><path stroke="#fff" stroke-width=".97" d="M638.285 144.536c-52.903-12.744-52.21 182.301-29.242 226.798l-108.028 10.985"/><path stroke="#fff" stroke-width=".97" d="M660.322 173.927c-16.347 1.779-52.677 11.219-61.589 33.346m71.76 2.262c-14.732 6.445-49.222 28.143-53.573 50.416-4.35 22.273 41.726 14.753 60.354 10.623m1.13 38.998c-15.484 7.23-69.76 12.029-81.931-4.522m82.495 74.04c-15.857-9.626-61.508-28.84-73.454-21.477m-42.943 18.086c-6.781 14.694 3.838 68.729 33.902 74.604"/><path fill="#fff" stroke="#000" stroke-width="2.911" d="M215.322 298.534h181.937a7.764 7.764 0 0 1 7.222 4.915l54.034 137.005a7.762 7.762 0 0 0 7.221 4.915H607.25a4.714 4.714 0 0 1 4.714 4.715 4.714 4.714 0 0 1-4.714 4.715H271.119a7.763 7.763 0 0 1-7.217-4.902l-55.796-140.739c-2.02-5.096 1.735-10.624 7.216-10.624Z"/><path fill="#000" d="m403.651 301.205 59.851 144.164h-4.041a7.763 7.763 0 0 1-7.167-4.779L395.65 304.532c-1.189-2.854.908-5.998 4-5.998a4.332 4.332 0 0 1 4.001 2.671ZM263.902 449.897l-55.796-140.739c-2.02-5.096 1.735-10.624 7.216-10.624h14.029c1.155 0 2.293.258 3.342.742 4.965 2.287 13.261 5.884 27.038 12.846 46.091 23.294 51.913 72.794 42.21 97.059-7.867 19.671 96.112 40.005 136.964 45.618H271.119a7.763 7.763 0 0 1-7.217-4.902Z"/><path fill="#000" d="M331.373 376.059c-5.985 2.245-12.929-1.516-15.51-8.4-2.582-6.884.177-14.285 6.162-16.531 5.985-2.245 12.929 1.516 15.511 8.4 2.581 6.885-.178 14.286-6.163 16.531Z"/></g><defs><clipPath id="a"><path fill="#fff" d="M0 0h796v473H0z"/></clipPath></defs></svg>