<svg xmlns="http://www.w3.org/2000/svg" width="56" height="56" fill="none"><path fill="#ACE3FF" d="M6.125 14.875 28 2.625l22.75 12.25L28 27.125 6.125 14.875ZM5.25 14.875v26.25L28 54.25V27.125L5.25 14.875Z"/><path fill="#7BBEEB" d="m14.875 20.125 13.125-7 13.125 7-13.125 7-13.125-7Z"/><path fill="#ACE3FF" d="m28 54.25 23.625-13.125v-26.25L28 27.125V54.25Z"/><path fill="#7BBEEB" d="M14.875 20.125v15.75l13.125 7v-15.75l-13.125-7ZM28 42.875l13.125-7v-15.75l-13.125 7v15.75Z"/><path fill="#E3F2FF" d="m14.875 35.875-9.625 5.25v-26.25l9.625 5.25v15.75Z"/><path fill="#8D6C9F" d="M28 28a.878.878 0 0 1-.412-.102l-13.125-7a.877.877 0 0 1 0-1.546l13.125-7a.879.879 0 0 1 .823 0l13.125 7a.877.877 0 0 1 .001 1.546l-13.125 7A.878.878 0 0 1 28 28Zm-11.266-7.875L28 26.133l11.266-6.008L28 14.117l-11.266 6.008Z"/><path fill="#8D6C9F" d="M14.875 23.625A.875.875 0 0 1 14 22.75v-2.105l-9.17-5.002a.876.876 0 0 1 .005-1.539l22.75-12.25a.875.875 0 0 1 .83 1.54L7.087 14.881l8.207 4.477c.281.153.456.448.456.768v2.625a.875.875 0 0 1-.875.875ZM14.875 30.625A.875.875 0 0 1 14 29.75v-3.5a.875.875 0 1 1 1.75 0v3.5a.875.875 0 0 1-.875.875ZM28 43.75a.88.88 0 0 1-.412-.102l-13.125-7a.877.877 0 0 1-.463-.773V33.25a.875.875 0 1 1 1.75 0v2.1l11.375 6.066V27.125a.875.875 0 1 1 1.75 0v15.75a.873.873 0 0 1-.875.875Z"/><path fill="#85CBF8" d="M51.625 41.125 28 53.375v-10.5l13.125-7 10.5 5.25Z"/><path fill="#8D6C9F" d="M28 55.125a.874.874 0 0 1-.875-.875V42.875a.875.875 0 1 1 1.75 0v9.888L51.2 40.36a.874.874 0 1 1 .85 1.53L28.425 55.015a.878.878 0 0 1-.425.11ZM41.125 36.75a.875.875 0 0 1-.875-.875v-15.75c0-.332.187-.634.484-.783l8.963-4.482L28.875 4.064v9.061a.875.875 0 1 1-1.75 0v-10.5a.873.873 0 0 1 1.277-.776l23.626 12.25a.876.876 0 0 1-.012 1.56L42 20.666v15.209a.875.875 0 0 1-.875.875ZM38.621 39.078a.875.875 0 0 1-.772-.463l-.823-1.545a.874.874 0 1 1 1.543-.824l.823 1.544a.874.874 0 0 1-.77 1.288ZM34.975 41.023a.878.878 0 0 1-.773-.463l-.824-1.546a.876.876 0 0 1 1.546-.824l.823 1.546a.876.876 0 0 1-.772 1.287Z"/><path fill="#8D6C9F" d="M31.33 42.966a.875.875 0 0 1-.773-.463l-.824-1.544a.875.875 0 1 1 1.544-.825l.823 1.545a.874.874 0 0 1-.77 1.287ZM51.625 42a.879.879 0 0 1-.391-.092l-10.5-5.25a.875.875 0 0 1 .783-1.565l9.233 4.616V14.875a.875.875 0 1 1 1.75 0v26.25a.877.877 0 0 1-.875.875ZM5.25 42a.874.874 0 0 1-.875-.875v-26.25a.875.875 0 1 1 1.75 0v24.776l8.33-4.544a.876.876 0 0 1 .84 1.535l-9.626 5.25A.87.87 0 0 1 5.25 42Z"/><path fill="#8D6C9F" d="M28 55.125a.873.873 0 0 1-.438-.117L4.813 41.883a.875.875 0 0 1 .876-1.516l22.75 13.125a.875.875 0 0 1-.439 1.633Z"/></svg>