<svg xmlns="http://www.w3.org/2000/svg" width="56" height="56" fill="none"><rect width="56" height="56" fill="#FFD600" rx="4"/><path fill="#000001" d="M41.461 45.438c.808 1.311 1.685 2.568 3.543 2.568 1.561 0 2.38-.776 2.38-1.85 0-1.284-.847-1.74-2.564-2.488l-.941-.401c-2.718-1.153-4.525-2.597-4.525-5.648 0-2.812 2.153-4.951 5.516-4.951 2.395 0 4.116.83 5.358 3.002l-2.934 1.874c-.645-1.152-1.342-1.606-2.424-1.606-1.103 0-1.802.697-1.802 1.606 0 1.125.7 1.58 2.316 2.277l.941.401c3.203 1.364 5.008 2.757 5.008 5.888 0 3.374-2.664 5.223-6.241 5.223-3.499 0-5.486-1.755-6.592-3.929l2.961-1.966Zm-13.517.096c.59 1.057 1.488 1.87 2.778 1.87 1.234 0 1.945-.488 1.945-2.384V32.667h3.888v12.95c0 3.929-2.278 5.716-5.605 5.716-3.007 0-5.177-2.037-6.061-3.929l3.055-1.87Z"/></svg>