<svg xmlns="http://www.w3.org/2000/svg" width="56" height="56" fill="none"><g clip-path="url(#a)"><path fill="#F4511E" d="M54.02 25.282 30.715 1.977C30 1.262 28.999.833 27.999.833c-1.001 0-2.002.43-2.717 1.144l-5.004 5.004 5.862 5.862a3.958 3.958 0 0 1 1.858-.429c2.431 0 4.29 1.859 4.29 4.29 0 .714-.143 1.286-.43 1.858l5.72 5.719a3.958 3.958 0 0 1 1.858-.429c2.43 0 4.29 1.859 4.29 4.29 0 2.43-1.86 4.289-4.29 4.289-2.43 0-4.289-1.86-4.289-4.29 0-.715.143-1.286.43-1.858l-5.72-5.72c-.143 0-.286.144-.429.144v14.869c1.716.572 2.86 2.145 2.86 4.003 0 2.43-1.859 4.29-4.29 4.29-2.43 0-4.289-1.86-4.289-4.29 0-1.858 1.144-3.431 2.86-4.003V20.564c-1.716-.572-2.86-2.145-2.86-4.004 0-.714.143-1.286.43-1.858L18.275 8.84 1.977 25.282c-.715.715-1.144 1.715-1.144 2.716 0 1.001.43 2.002 1.144 2.717L25.282 54.02c.715.714 1.716 1.143 2.716 1.143 1.001 0 2.002-.429 2.717-1.143L54.02 30.715c.715-.715 1.143-1.716 1.143-2.717 0-1-.428-2.001-1.143-2.716Z"/></g><defs><clipPath id="a"><path fill="#fff" d="M0 0h56v56H0z"/></clipPath></defs></svg>