<svg xmlns="http://www.w3.org/2000/svg" width="56" height="56" fill="none"><path fill="#149ECA" d="M28 40.46C12.037 40.46 0 35.238 0 28s12.037-12.6 28-12.6S56 20.762 56 28c0 7.238-12.037 12.46-28 12.46Zm0-20.955c-13.62 0-23.975 4.572-23.975 8.583S14.379 36.495 28 36.495c13.62 0 23.975-4.572 23.975-8.583S41.621 19.505 28 19.505Z"/><path fill="#149ECA" d="M17.363 53.2c-1.303 0-2.493-.302-3.54-.899-1.707-.976-2.932-2.699-3.544-4.987-1.604-5.994.984-16.074 6.598-25.681C23.464 10.37 32.21 2.804 38.64 2.804c1.302 0 2.492.303 3.538.899 1.705.973 2.931 2.695 3.543 4.981 1.606 5.995-.984 16.076-6.601 25.683C32.538 45.632 23.793 53.2 17.363 53.2ZM38.639 7.004c-4.043 0-11.773 5.87-18.136 16.748-5.772 9.879-7.465 18.073-6.165 22.476.351 1.189.847 2.013 1.569 2.425 3.305 1.887 12.333-3.99 19.587-16.404 5.775-9.88 7.644-17.899 6.169-22.477-.38-1.177-.846-2.009-1.567-2.42-.41-.234-.887-.348-1.457-.348Z"/><path fill="#149ECA" d="M38.639 53.196c-6.436-.002-15.18-7.567-21.762-18.829C11.263 24.76 8.675 14.68 10.28 8.686c.612-2.288 1.837-4.011 3.543-4.986 1.048-.598 2.238-.9 3.538-.9 6.433 0 15.176 7.568 21.759 18.833 5.615 9.605 8.204 19.687 6.6 25.683-.614 2.286-1.839 4.008-3.542 4.981-1.046.596-2.238.899-3.538.899ZM17.36 7c-.57 0-1.046.115-1.456.347-.72.412-1.223 1.234-1.568 2.425-1.299 4.491.394 12.599 6.166 22.477 6.357 10.877 14.088 16.747 18.135 16.747.572 0 1.048-.115 1.458-.349.72-.409 1.236-1.226 1.565-2.419 1.214-4.404-.393-12.6-6.167-22.477C29.136 12.871 21.406 7 17.36 7Z"/><path fill="#149ECA" d="M32.9 28c0 2.709-2.19 4.9-4.9 4.9a4.896 4.896 0 0 1-4.9-4.9c0-2.709 2.191-4.9 4.9-4.9 2.71 0 4.9 2.191 4.9 4.9Z"/><path fill="#149ECA" d="M28 33.6a5.606 5.606 0 0 1-5.6-5.6c0-3.088 2.512-5.6 5.6-5.6 3.088 0 5.6 2.512 5.6 5.6 0 3.088-2.512 5.6-5.6 5.6Zm0-9.8a4.205 4.205 0 0 0-4.2 4.2c0 2.316 1.884 4.2 4.2 4.2 2.316 0 4.2-1.884 4.2-4.2 0-2.316-1.885-4.2-4.2-4.2Z"/><path fill="#149ECA" d="M28 39.295C13.084 39.295 1.4 34.334 1.4 28S13.084 16.705 28 16.705c14.916 0 26.6 4.961 26.6 11.295S42.916 39.295 28 39.295Zm0-21.19c-13.66 0-25.2 4.532-25.2 9.895 0 5.363 11.54 9.895 25.2 9.895S53.2 33.365 53.2 28c0-5.365-11.54-9.895-25.2-9.895Z"/><path fill="#149ECA" d="M17.363 51.8c-1.057 0-2.013-.24-2.846-.715-1.395-.797-2.365-2.187-2.887-4.133-1.513-5.652 1.02-15.313 6.454-24.614C24.331 11.662 32.783 4.204 38.639 4.204c1.055 0 2.013.241 2.845.716 1.393.795 2.363 2.184 2.885 4.127 1.513 5.652-1.02 15.313-6.457 24.615C31.67 44.34 23.221 51.8 17.363 51.8ZM38.639 5.604c-5.298 0-13.433 7.335-19.344 17.441-5.173 8.855-7.71 18.317-6.311 23.546.421 1.572 1.17 2.674 2.229 3.278.617.352 1.34.531 2.149.531 5.299 0 13.433-7.336 19.34-17.445 5.175-8.857 7.713-18.32 6.312-23.546-.42-1.569-1.17-2.67-2.226-3.273-.618-.353-1.34-.532-2.15-.532Z"/><path fill="#149ECA" d="M38.639 51.796c-5.862-.002-14.314-7.458-20.554-18.134-5.435-9.3-7.967-18.962-6.454-24.614.52-1.946 1.491-3.336 2.887-4.133.832-.474 1.788-.715 2.842-.715 5.859 0 14.31 7.46 20.55 18.138 5.437 9.3 7.97 18.96 6.455 24.615-.52 1.945-1.49 3.334-2.883 4.127-.832.475-1.788.716-2.843.716ZM17.358 5.6c-.807 0-1.53.18-2.148.53-1.059.605-1.808 1.707-2.229 3.28-1.398 5.227 1.138 14.69 6.311 23.545C25.2 43.06 33.337 50.395 38.64 50.395c.809 0 1.532-.178 2.15-.531 1.055-.602 1.804-1.704 2.224-3.273 1.4-5.23-1.136-14.692-6.31-23.546C30.793 12.937 22.661 5.6 17.36 5.6Z"/></svg>