<svg xmlns="http://www.w3.org/2000/svg" width="56" height="56" fill="none"><path fill="#E44D26" d="M8.328 49.82 3.951.728h48.097l-4.382 49.086-19.696 5.46-19.642-5.452Z"/><path fill="#F16529" d="m28 51.1 15.915-4.413L47.66 4.741H28V51.1Z"/><path fill="#EBEBEB" d="M28 22.95h-7.968l-.55-6.167H28v-6.02H12.9l.145 1.614 1.48 16.593H28v-6.02Zm0 15.637-.027.007-6.705-1.811-.429-4.802h-6.045l.844 9.454 12.334 3.424.028-.007v-6.265Z"/><path fill="#fff" d="M27.979 22.95v6.02h7.414l-.699 7.81-6.716 1.812v6.264l12.345-3.42.09-1.018 1.415-15.852.147-1.617H27.979Zm0-12.188v6.02h14.544l.12-1.352.275-3.053.144-1.615H27.98Z"/></svg>