<svg xmlns="http://www.w3.org/2000/svg" width="56" height="56" fill="none"><path fill="#764ABC" d="M26.834 4.667c-7.72 0-14 8.481-14 18.906 0 5.64 1.845 10.697 4.757 14.158a3.483 3.483 0 0 0-.09.769A3.5 3.5 0 1 0 21 35c-.368 0-.715.072-1.047.177-2.213-2.824-3.62-6.973-3.62-11.604 0-8.495 4.71-15.406 10.5-15.406 4.476 0 8.296 4.138 9.804 9.937 1.31.404 2.61.913 3.885 1.526-1.347-8.537-6.97-14.963-13.69-14.963Z"/><path fill="#764ABC" d="M41.425 23.431c-4.605-2.79-9.77-4.015-14.212-3.452a3.48 3.48 0 0 0-2.713-1.312 3.5 3.5 0 1 0 0 7 3.494 3.494 0 0 0 3.254-2.231c3.637-.442 7.947.62 11.857 2.99 7.47 4.528 11.281 12.33 8.495 17.396-.965 1.755-2.667 3.001-4.92 3.605-2.668.713-5.842.46-9.016-.616-.978.901-2.04 1.748-3.179 2.53 2.978 1.303 6.062 1.988 8.947 1.988 1.447 0 2.845-.172 4.153-.522 3.197-.855 5.648-2.688 7.082-5.299 3.679-6.686-.695-16.59-9.748-22.077Z"/><path fill="#764ABC" d="M40.834 33.824a3.496 3.496 0 0 0-3.5-3.49 3.496 3.496 0 0 0-3.5 3.49c0 .78.265 1.495.7 2.076-1.493 3.269-4.368 6.494-8.24 8.84-4.509 2.735-9.549 3.736-13.48 2.686-2.254-.604-3.956-1.85-4.921-3.605-1.986-3.61-.608-8.605 3.045-12.82a26.754 26.754 0 0 1-.824-4.17c-5.915 5.597-8.294 13.21-5.287 18.677 1.435 2.611 3.885 4.444 7.082 5.3 1.308.35 2.705.52 4.153.52 3.903 0 8.174-1.245 12.047-3.593 4.475-2.712 7.797-6.506 9.577-10.455 1.765-.179 3.148-1.649 3.148-3.456Z"/></svg>