<svg xmlns="http://www.w3.org/2000/svg" width="22" height="22" fill="none"><path stroke="#000" stroke-linecap="round" stroke-linejoin="round" stroke-width="2" d="M2.74 4.468c.29-.482 1.889-2.228 3.028-2.175.34.03.642.234.887.473.56.55 2.172 2.625 2.262 3.062.223 1.071-1.054 1.689-.664 2.768.996 2.438 2.713 4.154 5.151 5.149 1.079.391 1.697-.885 2.768-.663.437.091 2.513 1.7 3.061 2.262.239.244.446.546.474.887.042 1.2-1.812 2.82-2.174 3.027-.853.611-1.966.6-3.322-.03-3.786-1.576-9.836-7.511-11.44-11.44-.614-1.348-.655-2.469-.03-3.32Z" clip-rule="evenodd"/><path stroke="#000" stroke-linecap="round" stroke-linejoin="round" stroke-width="2" d="M13.352 2.521a7.307 7.307 0 0 1 6.454 6.446M13.352 5.769a4.057 4.057 0 0 1 3.206 3.206"/></svg>