<svg width="23" height="18" viewBox="0 0 23 18" fill="none" xmlns="http://www.w3.org/2000/svg">
<path fill-rule="evenodd" clip-rule="evenodd" d="M0.333008 6.6C0.333008 4.5496 0.333008 3.5244 0.668508 2.717C1.11483 1.63895 1.97106 0.782318 3.04891 0.3355C3.85741 3.27826e-07 4.88261 0 6.93301 0H15.733C17.7834 0 18.8086 3.27826e-07 19.616 0.3355C20.6941 0.78182 21.5507 1.63806 21.9975 2.7159C22.333 3.5244 22.333 4.5496 22.333 6.6V11C22.333 13.0504 22.333 14.0756 21.9975 14.883C21.5512 15.961 20.695 16.8177 19.6171 17.2645C18.8086 17.6 17.7834 17.6 15.733 17.6H6.93301C4.88261 17.6 3.85741 17.6 3.05001 17.2645C1.97196 16.8182 1.11533 15.9619 0.668508 14.8841C0.333008 14.0756 0.333008 13.0504 0.333008 11V6.6ZM2.53301 5.8377V11C2.53301 12.056 2.53411 12.7358 2.56931 13.2572C2.60451 13.7599 2.66281 13.9502 2.70131 14.0415C2.81175 14.3085 2.9737 14.5511 3.17791 14.7555C3.38213 14.9599 3.62461 15.1221 3.89151 15.2328C3.98281 15.2702 4.17421 15.3296 4.67581 15.3637C5.19611 15.3989 5.87811 15.4 6.93301 15.4H15.733C16.789 15.4 17.4688 15.3989 17.9902 15.3637C18.4929 15.3296 18.6832 15.2702 18.7745 15.2317C19.0415 15.1213 19.2841 14.9593 19.4885 14.7551C19.6929 14.5509 19.8551 14.3084 19.9658 14.0415C20.0032 13.9502 20.0626 13.7599 20.0967 13.2572C20.1319 12.7358 20.133 12.0549 20.133 11V5.852L11.3319 10.9164L2.53301 5.8377ZM19.913 3.4408C19.6779 2.9555 19.2728 2.57344 18.7745 2.3672C18.6832 2.3298 18.4929 2.2715 17.9902 2.2363C17.4688 2.2011 16.789 2.2 15.733 2.2H6.93301C5.87701 2.2 5.19611 2.2011 4.67471 2.2363C4.17421 2.2715 3.98171 2.3298 3.89151 2.3683C3.39776 2.57214 2.99505 2.94866 2.75851 3.4276L11.333 8.3776L19.913 3.4408Z" fill="black"/>
</svg>
