<svg xmlns="http://www.w3.org/2000/svg" width="24" height="24" fill="none"><path fill="#fff" fill-rule="evenodd" d="M12 .933C6 .933 1.135 5.8 1.135 11.8c0 4.8 3.133 8.867 7.4 10.333.533.067.733-.266.733-.533v-1.867c-3 .667-3.667-1.466-3.667-1.466-.466-1.267-1.2-1.6-1.2-1.6-1-.667.067-.667.067-.667 1.067.067 1.667 1.133 1.667 1.133 1 1.667 2.533 1.2 3.133.934.067-.734.4-1.2.667-1.467C7.534 16.333 5 15.4 5 11.2c0-1.2.4-2.133 1.134-2.933C6 8 5.667 6.867 6.267 5.4c0 0 .933-.267 3 1.133.867-.266 1.8-.333 2.734-.333.933 0 1.866.133 2.733.333 2.066-1.4 3-1.133 3-1.133.6 1.467.2 2.6.133 2.867A4.312 4.312 0 0 1 19 11.2c0 4.2-2.533 5.067-4.933 5.333.4.334.733 1 .733 2v3c0 .267.2.6.734.534a10.879 10.879 0 0 0 7.4-10.334C22.867 5.8 18 .933 12 .933Z" clip-rule="evenodd"/></svg>